# xmcd
#
# Track frame offsets: 
#        150
#        12992
#        27655
#        44730
#        64792
#        74862
#        91165
#        102827
#        114295
#        128470
#
# Disc length: 1889 seconds
#
# Revision: 2
# Processed by: cddbd v1.5.2PL0 Copyright (c) Steve Scherf et al.
# Submitted via: ExactAudioCopy v1.3
#
DISCID=88075f0a
DTITLE=George Strait - Livin' It Up
DYEAR=1990
DGENRE=Country
TTITLE0=Some Had To Teach You
TTITLE1=Heaven Must Be Wondering Where You Are
TTITLE2=I've Come To Expect It From You
TTITLE3=Lonesome Rodeo Cowboy
TTITLE4=When You're A Man On Your Own
TTITLE5=Drinking Champagne
TTITLE6=We're Supposed To Do That Now And Then
TTITLE7=She Loves Me (She Don't Love You)
TTITLE8=Love Without End, Amen
TTITLE9=Stranger In My Arms
EXTD=(c)1990 MCA\nupc 022925723826\nMCA 2292-57238-2\nProduced by Jimm
EXTD=y Bowen for Lynwood Productions and George Strait for George Stra
EXTD=it Productions
EXTT0=
EXTT1=
EXTT2=
EXTT3=
EXTT4=
EXTT5=
EXTT6=
EXTT7=
EXTT8=
EXTT9=
PLAYORDER=
